<svg width="70" height="70" viewBox="0 0 70 70" fill="none" xmlns="http://www.w3.org/2000/svg">
<path d="M35.0002 5.83325C18.9177 5.83325 5.8335 18.9174 5.8335 34.9999C5.8335 51.0824 18.9177 64.1666 35.0002 64.1666C51.0827 64.1666 64.1668 51.0824 64.1668 34.9999C64.1668 18.9174 51.0827 5.83325 35.0002 5.83325ZM35.0002 58.3332C22.1347 58.3332 11.6668 47.8653 11.6668 34.9999C11.6668 22.1345 22.1347 11.6666 35.0002 11.6666C47.8656 11.6666 58.3335 22.1345 58.3335 34.9999C58.3335 47.8653 47.8656 58.3332 35.0002 58.3332Z" fill="white"/>
<path d="M26.25 49.5834L49.5833 35.0001L26.25 20.4167V49.5834Z" fill="white"/>
</svg>
